<svg xmlns="http://www.w3.org/2000/svg" role="img" aria-label="the long thought" viewBox="-7.06 -74.66 644.50 103.38">
<title>the long thought — The Long Thought wordmark</title>
<path d="M15.46875 -57.046875V-42.9375H25.5V-39.65625H15.46875V-11.8125Q15.46875 -7.640625 16.6640625 -6.1875Q17.859375 -4.734375 19.734375 -4.734375Q21.28125 -4.734375 22.734375 -5.6953125Q24.1875 -6.65625 24.984375 -8.53125H26.8125Q25.171875 -3.9375 22.171875 -1.6171875Q19.171875 0.703125 15.984375 0.703125Q13.828125 0.703125 11.765625 -0.4921875Q9.703125 -1.6875 8.71875 -3.9140625Q7.734375 -6.140625 7.734375 -10.78125V-39.65625H0.9375V-41.203125Q3.515625 -42.234375 6.2109375 -44.6953125Q8.90625 -47.15625 11.015625 -50.53125Q12.09375 -52.3125 14.015625 -57.046875Z M42.28125 -66.65625V-35.25Q47.484375 -40.96875 50.53125 -42.5859375Q53.578125 -44.203125 56.625 -44.203125Q60.28125 -44.203125 62.90625 -42.1875Q65.53125 -40.171875 66.796875 -35.859375Q67.6875 -32.859375 67.6875 -24.890625V-9.703125Q67.6875 -5.625 68.34375 -4.125Q68.8125 -3.0 69.9375 -2.34375Q71.0625 -1.6875 74.0625 -1.6875V0.0H52.96875V-1.6875H53.953125Q56.953125 -1.6875 58.125 -2.6015625Q59.296875 -3.515625 59.765625 -5.296875Q59.90625 -6.046875 59.90625 -9.703125V-24.890625Q59.90625 -31.921875 59.1796875 -34.125Q58.453125 -36.328125 56.859375 -37.4296875Q55.265625 -38.53125 53.015625 -38.53125Q50.71875 -38.53125 48.234375 -37.3125Q45.75 -36.09375 42.28125 -32.390625V-9.703125Q42.28125 -5.296875 42.7734375 -4.21875Q43.265625 -3.140625 44.6015625 -2.4140625Q45.9375 -1.6875 49.21875 -1.6875V0.0H27.9375V-1.6875Q30.796875 -1.6875 32.4375 -2.578125Q33.375 -3.046875 33.9375 -4.359375Q34.5 -5.671875 34.5 -9.703125V-48.5625Q34.5 -55.921875 34.1484375 -57.609375Q33.796875 -59.296875 33.0703125 -59.90625Q32.34375 -60.515625 31.125 -60.515625Q30.140625 -60.515625 27.9375 -59.765625L27.28125 -61.40625L40.125 -66.65625Z M84.890625 -26.765625Q84.84375 -17.203125 89.53125 -11.765625Q94.21875 -6.328125 100.546875 -6.328125Q104.765625 -6.328125 107.8828125 -8.6484375Q111.0 -10.96875 113.109375 -16.59375L114.5625 -15.65625Q113.578125 -9.234375 108.84375 -3.9609375Q104.109375 1.3125 96.984375 1.3125Q89.25 1.3125 83.7421875 -4.7109375Q78.234375 -10.734375 78.234375 -20.90625Q78.234375 -31.921875 83.8828125 -38.0859375Q89.53125 -44.25 98.0625 -44.25Q105.28125 -44.25 109.921875 -39.4921875Q114.5625 -34.734375 114.5625 -26.765625ZM84.890625 -29.484375H104.765625Q104.53125 -33.609375 103.78125 -35.296875Q102.609375 -37.921875 100.2890625 -39.421875Q97.96875 -40.921875 95.4375 -40.921875Q91.546875 -40.921875 88.4765625 -37.8984375Q85.40625 -34.875 84.890625 -29.484375Z M159.046875 -66.65625V-9.703125Q159.046875 -5.671875 159.6328125 -4.359375Q160.21875 -3.046875 161.4375 -2.3671875Q162.65625 -1.6875 165.984375 -1.6875V0.0H144.9375V-1.6875Q147.890625 -1.6875 148.96875 -2.296875Q150.046875 -2.90625 150.65625 -4.3125Q151.265625 -5.71875 151.265625 -9.703125V-48.703125Q151.265625 -55.96875 150.9375 -57.6328125Q150.609375 -59.296875 149.8828125 -59.90625Q149.15625 -60.515625 148.03125 -60.515625Q146.8125 -60.515625 144.9375 -59.765625L144.140625 -61.40625L156.9375 -66.65625Z M191.953125 -44.203125Q201.703125 -44.203125 207.609375 -36.796875Q212.625 -30.46875 212.625 -22.265625Q212.625 -16.5 209.859375 -10.59375Q207.09375 -4.6875 202.2421875 -1.6875Q197.390625 1.3125 191.4375 1.3125Q181.734375 1.3125 176.015625 -6.421875Q171.1875 -12.9375 171.1875 -21.046875Q171.1875 -26.953125 174.1171875 -32.7890625Q177.046875 -38.625 181.828125 -41.4140625Q186.609375 -44.203125 191.953125 -44.203125ZM190.5 -41.15625Q188.015625 -41.15625 185.5078125 -39.6796875Q183.0 -38.203125 181.453125 -34.5Q179.90625 -30.796875 179.90625 -24.984375Q179.90625 -15.609375 183.6328125 -8.8125Q187.359375 -2.015625 193.453125 -2.015625Q198.0 -2.015625 200.953125 -5.765625Q203.90625 -9.515625 203.90625 -18.65625Q203.90625 -30.09375 198.984375 -36.65625Q195.65625 -41.15625 190.5 -41.15625Z M231.46875 -35.109375Q239.015625 -44.203125 245.859375 -44.203125Q249.375 -44.203125 251.90625 -42.4453125Q254.4375 -40.6875 255.9375 -36.65625Q256.96875 -33.84375 256.96875 -28.03125V-9.703125Q256.96875 -5.625 257.625 -4.171875Q258.140625 -3.0 259.2890625 -2.34375Q260.4375 -1.6875 263.53125 -1.6875V0.0H242.296875V-1.6875H243.1875Q246.1875 -1.6875 247.3828125 -2.6015625Q248.578125 -3.515625 249.046875 -5.296875Q249.234375 -6.0 249.234375 -9.703125V-27.28125Q249.234375 -33.140625 247.7109375 -35.7890625Q246.1875 -38.4375 242.578125 -38.4375Q237.0 -38.4375 231.46875 -32.34375V-9.703125Q231.46875 -5.34375 231.984375 -4.3125Q232.640625 -2.953125 233.7890625 -2.3203125Q234.9375 -1.6875 238.453125 -1.6875V0.0H217.21875V-1.6875H218.15625Q221.4375 -1.6875 222.5859375 -3.3515625Q223.734375 -5.015625 223.734375 -9.703125V-25.640625Q223.734375 -33.375 223.3828125 -35.0625Q223.03125 -36.75 222.3046875 -37.359375Q221.578125 -37.96875 220.359375 -37.96875Q219.046875 -37.96875 217.21875 -37.265625L216.515625 -38.953125L229.453125 -44.203125H231.46875Z M278.4375 -15.65625Q274.5 -17.578125 272.390625 -21.0234375Q270.28125 -24.46875 270.28125 -28.640625Q270.28125 -35.015625 275.0859375 -39.609375Q279.890625 -44.203125 287.390625 -44.203125Q293.53125 -44.203125 298.03125 -41.203125H307.125Q309.140625 -41.203125 309.46875 -41.0859375Q309.796875 -40.96875 309.9375 -40.6875Q310.21875 -40.265625 310.21875 -39.1875Q310.21875 -37.96875 309.984375 -37.5Q309.84375 -37.265625 309.4921875 -37.125Q309.140625 -36.984375 307.125 -36.984375H301.546875Q304.171875 -33.609375 304.171875 -28.359375Q304.171875 -22.359375 299.578125 -18.09375Q294.984375 -13.828125 287.25 -13.828125Q284.0625 -13.828125 280.734375 -14.765625Q278.671875 -12.984375 277.9453125 -11.6484375Q277.21875 -10.3125 277.21875 -9.375Q277.21875 -8.578125 277.9921875 -7.828125Q278.765625 -7.078125 281.015625 -6.75Q282.328125 -6.5625 287.578125 -6.421875Q297.234375 -6.1875 300.09375 -5.765625Q304.453125 -5.15625 307.0546875 -2.53125Q309.65625 0.09375 309.65625 3.9375Q309.65625 9.234375 304.6875 13.875Q297.375 20.71875 285.609375 20.71875Q276.5625 20.71875 270.328125 16.640625Q266.8125 14.296875 266.8125 11.765625Q266.8125 10.640625 267.328125 9.515625Q268.125 7.78125 270.609375 4.6875Q270.9375 4.265625 275.390625 -0.375Q272.953125 -1.828125 271.9453125 -2.9765625Q270.9375 -4.125 270.9375 -5.578125Q270.9375 -7.21875 272.2734375 -9.421875Q273.609375 -11.625 278.4375 -15.65625ZM286.59375 -41.953125Q283.125 -41.953125 280.78125 -39.1875Q278.4375 -36.421875 278.4375 -30.703125Q278.4375 -23.296875 281.625 -19.21875Q284.0625 -16.125 287.8125 -16.125Q291.375 -16.125 293.671875 -18.796875Q295.96875 -21.46875 295.96875 -27.1875Q295.96875 -34.640625 292.734375 -38.859375Q290.34375 -41.953125 286.59375 -41.953125ZM277.96875 0.0Q275.765625 2.390625 274.640625 4.453125Q273.515625 6.515625 273.515625 8.25Q273.515625 10.5 276.234375 12.1875Q280.921875 15.09375 289.78125 15.09375Q298.21875 15.09375 302.2265625 12.1171875Q306.234375 9.140625 306.234375 5.765625Q306.234375 3.328125 303.84375 2.296875Q301.40625 1.265625 294.1875 1.078125Q283.640625 0.796875 277.96875 0.0Z M351.421875 -57.046875V-42.9375H361.453125V-39.65625H351.421875V-11.8125Q351.421875 -7.640625 352.6171875 -6.1875Q353.8125 -4.734375 355.6875 -4.734375Q357.234375 -4.734375 358.6875 -5.6953125Q360.140625 -6.65625 360.9375 -8.53125H362.765625Q361.125 -3.9375 358.125 -1.6171875Q355.125 0.703125 351.9375 0.703125Q349.78125 0.703125 347.71875 -0.4921875Q345.65625 -1.6875 344.671875 -3.9140625Q343.6875 -6.140625 343.6875 -10.78125V-39.65625H336.890625V-41.203125Q339.46875 -42.234375 342.1640625 -44.6953125Q344.859375 -47.15625 346.96875 -50.53125Q348.046875 -52.3125 349.96875 -57.046875Z M378.234375 -66.65625V-35.25Q383.4375 -40.96875 386.484375 -42.5859375Q389.53125 -44.203125 392.578125 -44.203125Q396.234375 -44.203125 398.859375 -42.1875Q401.484375 -40.171875 402.75 -35.859375Q403.640625 -32.859375 403.640625 -24.890625V-9.703125Q403.640625 -5.625 404.296875 -4.125Q404.765625 -3.0 405.890625 -2.34375Q407.015625 -1.6875 410.015625 -1.6875V0.0H388.921875V-1.6875H389.90625Q392.90625 -1.6875 394.078125 -2.6015625Q395.25 -3.515625 395.71875 -5.296875Q395.859375 -6.046875 395.859375 -9.703125V-24.890625Q395.859375 -31.921875 395.1328125 -34.125Q394.40625 -36.328125 392.8125 -37.4296875Q391.21875 -38.53125 388.96875 -38.53125Q386.671875 -38.53125 384.1875 -37.3125Q381.703125 -36.09375 378.234375 -32.390625V-9.703125Q378.234375 -5.296875 378.7265625 -4.21875Q379.21875 -3.140625 380.5546875 -2.4140625Q381.890625 -1.6875 385.171875 -1.6875V0.0H363.890625V-1.6875Q366.75 -1.6875 368.390625 -2.578125Q369.328125 -3.046875 369.890625 -4.359375Q370.453125 -5.671875 370.453125 -9.703125V-48.5625Q370.453125 -55.921875 370.1015625 -57.609375Q369.75 -59.296875 369.0234375 -59.90625Q368.296875 -60.515625 367.078125 -60.515625Q366.09375 -60.515625 363.890625 -59.765625L363.234375 -61.40625L376.078125 -66.65625Z M434.625 -44.203125Q444.375 -44.203125 450.28125 -36.796875Q455.296875 -30.46875 455.296875 -22.265625Q455.296875 -16.5 452.53125 -10.59375Q449.765625 -4.6875 444.9140625 -1.6875Q440.0625 1.3125 434.109375 1.3125Q424.40625 1.3125 418.6875 -6.421875Q413.859375 -12.9375 413.859375 -21.046875Q413.859375 -26.953125 416.7890625 -32.7890625Q419.71875 -38.625 424.5 -41.4140625Q429.28125 -44.203125 434.625 -44.203125ZM433.171875 -41.15625Q430.6875 -41.15625 428.1796875 -39.6796875Q425.671875 -38.203125 424.125 -34.5Q422.578125 -30.796875 422.578125 -24.984375Q422.578125 -15.609375 426.3046875 -8.8125Q430.03125 -2.015625 436.125 -2.015625Q440.671875 -2.015625 443.625 -5.765625Q446.578125 -9.515625 446.578125 -18.65625Q446.578125 -30.09375 441.65625 -36.65625Q438.328125 -41.15625 433.171875 -41.15625Z M499.265625 -42.9375V-16.921875Q499.265625 -9.46875 499.6171875 -7.8046875Q499.96875 -6.140625 500.7421875 -5.484375Q501.515625 -4.828125 502.546875 -4.828125Q504.0 -4.828125 505.828125 -5.625L506.484375 -3.984375L493.640625 1.3125H491.53125V-7.78125Q486.0 -1.78125 483.09375 -0.234375Q480.1875 1.3125 476.953125 1.3125Q473.34375 1.3125 470.6953125 -0.7734375Q468.046875 -2.859375 467.015625 -6.140625Q465.984375 -9.421875 465.984375 -15.421875V-34.59375Q465.984375 -37.640625 465.328125 -38.8125Q464.671875 -39.984375 463.3828125 -40.6171875Q462.09375 -41.25 458.71875 -41.203125V-42.9375H473.765625V-14.203125Q473.765625 -8.203125 475.8515625 -6.328125Q477.9375 -4.453125 480.890625 -4.453125Q482.90625 -4.453125 485.4609375 -5.71875Q488.015625 -6.984375 491.53125 -10.546875V-34.875Q491.53125 -38.53125 490.1953125 -39.8203125Q488.859375 -41.109375 484.640625 -41.203125V-42.9375Z M521.109375 -15.65625Q517.171875 -17.578125 515.0625 -21.0234375Q512.953125 -24.46875 512.953125 -28.640625Q512.953125 -35.015625 517.7578125 -39.609375Q522.5625 -44.203125 530.0625 -44.203125Q536.203125 -44.203125 540.703125 -41.203125H549.796875Q551.8125 -41.203125 552.140625 -41.0859375Q552.46875 -40.96875 552.609375 -40.6875Q552.890625 -40.265625 552.890625 -39.1875Q552.890625 -37.96875 552.65625 -37.5Q552.515625 -37.265625 552.1640625 -37.125Q551.8125 -36.984375 549.796875 -36.984375H544.21875Q546.84375 -33.609375 546.84375 -28.359375Q546.84375 -22.359375 542.25 -18.09375Q537.65625 -13.828125 529.921875 -13.828125Q526.734375 -13.828125 523.40625 -14.765625Q521.34375 -12.984375 520.6171875 -11.6484375Q519.890625 -10.3125 519.890625 -9.375Q519.890625 -8.578125 520.6640625 -7.828125Q521.4375 -7.078125 523.6875 -6.75Q525.0 -6.5625 530.25 -6.421875Q539.90625 -6.1875 542.765625 -5.765625Q547.125 -5.15625 549.7265625 -2.53125Q552.328125 0.09375 552.328125 3.9375Q552.328125 9.234375 547.359375 13.875Q540.046875 20.71875 528.28125 20.71875Q519.234375 20.71875 513.0 16.640625Q509.484375 14.296875 509.484375 11.765625Q509.484375 10.640625 510.0 9.515625Q510.796875 7.78125 513.28125 4.6875Q513.609375 4.265625 518.0625 -0.375Q515.625 -1.828125 514.6171875 -2.9765625Q513.609375 -4.125 513.609375 -5.578125Q513.609375 -7.21875 514.9453125 -9.421875Q516.28125 -11.625 521.109375 -15.65625ZM529.265625 -41.953125Q525.796875 -41.953125 523.453125 -39.1875Q521.109375 -36.421875 521.109375 -30.703125Q521.109375 -23.296875 524.296875 -19.21875Q526.734375 -16.125 530.484375 -16.125Q534.046875 -16.125 536.34375 -18.796875Q538.640625 -21.46875 538.640625 -27.1875Q538.640625 -34.640625 535.40625 -38.859375Q533.015625 -41.953125 529.265625 -41.953125ZM520.640625 0.0Q518.4375 2.390625 517.3125 4.453125Q516.1875 6.515625 516.1875 8.25Q516.1875 10.5 518.90625 12.1875Q523.59375 15.09375 532.453125 15.09375Q540.890625 15.09375 544.8984375 12.1171875Q548.90625 9.140625 548.90625 5.765625Q548.90625 3.328125 546.515625 2.296875Q544.078125 1.265625 536.859375 1.078125Q526.3125 0.796875 520.640625 0.0Z M570.234375 -66.65625V-35.25Q575.4375 -40.96875 578.484375 -42.5859375Q581.53125 -44.203125 584.578125 -44.203125Q588.234375 -44.203125 590.859375 -42.1875Q593.484375 -40.171875 594.75 -35.859375Q595.640625 -32.859375 595.640625 -24.890625V-9.703125Q595.640625 -5.625 596.296875 -4.125Q596.765625 -3.0 597.890625 -2.34375Q599.015625 -1.6875 602.015625 -1.6875V0.0H580.921875V-1.6875H581.90625Q584.90625 -1.6875 586.078125 -2.6015625Q587.25 -3.515625 587.71875 -5.296875Q587.859375 -6.046875 587.859375 -9.703125V-24.890625Q587.859375 -31.921875 587.1328125 -34.125Q586.40625 -36.328125 584.8125 -37.4296875Q583.21875 -38.53125 580.96875 -38.53125Q578.671875 -38.53125 576.1875 -37.3125Q573.703125 -36.09375 570.234375 -32.390625V-9.703125Q570.234375 -5.296875 570.7265625 -4.21875Q571.21875 -3.140625 572.5546875 -2.4140625Q573.890625 -1.6875 577.171875 -1.6875V0.0H555.890625V-1.6875Q558.75 -1.6875 560.390625 -2.578125Q561.328125 -3.046875 561.890625 -4.359375Q562.453125 -5.671875 562.453125 -9.703125V-48.5625Q562.453125 -55.921875 562.1015625 -57.609375Q561.75 -59.296875 561.0234375 -59.90625Q560.296875 -60.515625 559.078125 -60.515625Q558.09375 -60.515625 555.890625 -59.765625L555.234375 -61.40625L568.078125 -66.65625Z M618.09375 -57.046875V-42.9375H628.125V-39.65625H618.09375V-11.8125Q618.09375 -7.640625 619.2890625 -6.1875Q620.484375 -4.734375 622.359375 -4.734375Q623.90625 -4.734375 625.359375 -5.6953125Q626.8125 -6.65625 627.609375 -8.53125H629.4375Q627.796875 -3.9375 624.796875 -1.6171875Q621.796875 0.703125 618.609375 0.703125Q616.453125 0.703125 614.390625 -0.4921875Q612.328125 -1.6875 611.34375 -3.9140625Q610.359375 -6.140625 610.359375 -10.78125V-39.65625H603.5625V-41.203125Q606.140625 -42.234375 608.8359375 -44.6953125Q611.53125 -47.15625 613.640625 -50.53125Q614.71875 -52.3125 616.640625 -57.046875Z" fill="#1C1B19"/>
</svg>
